<svg xmlns="http://www.w3.org/2000/svg" viewBox="0 0 120 120" width="120" height="120">
  <!-- 星星软糖 -->
  <path d="M60 8 L77 45 L118 49 L88 76 L96 116 L60 94 L24 116 L32 76 L2 49 L43 45 Z"
        fill="#FFE066" stroke="#E09F3E" stroke-width="7" stroke-linejoin="round"/>
  <path d="M60 22 L72 48 L102 51 L79 71 L85 100 L60 85 L35 100 L41 71 L18 51 L48 48 Z"
        fill="#FFF3C4" opacity="0.85"/>
  <circle cx="50" cy="58" r="5" fill="#8A5A44"/>
  <circle cx="70" cy="58" r="5" fill="#8A5A44"/>
  <ellipse cx="40" cy="68" rx="6" ry="4" fill="#FF9FB6"/>
  <ellipse cx="80" cy="68" rx="6" ry="4" fill="#FF9FB6"/>
  <path d="M53 68 q7 8 14 0" fill="none" stroke="#8A5A44" stroke-width="4.5" stroke-linecap="round"/>
</svg>
