<svg xmlns="http://www.w3.org/2000/svg" viewBox="0 0 1200 400" width="1200" height="400">
  <!-- 远处的小镇剪影 -->
  <g fill="#CDB9F0" opacity="0.85">
    <rect x="40" y="190" width="90" height="210" rx="12"/>
    <rect x="150" y="130" width="70" height="270" rx="10"/>
    <rect x="238" y="220" width="106" height="180" rx="12"/>
    <rect x="368" y="150" width="80" height="250" rx="12"/>
    <rect x="470" y="240" width="120" height="160" rx="12"/>
    <rect x="612" y="170" width="86" height="230" rx="12"/>
    <rect x="720" y="120" width="66" height="280" rx="10"/>
    <rect x="808" y="210" width="110" height="190" rx="12"/>
    <rect x="940" y="160" width="78" height="240" rx="12"/>
    <rect x="1040" y="230" width="120" height="170" rx="12"/>
  </g>
  <g fill="#FFF1C9" opacity="0.9">
    <rect x="62" y="212" width="18" height="18" rx="5"/><rect x="92" y="212" width="18" height="18" rx="5"/>
    <rect x="62" y="248" width="18" height="18" rx="5"/><rect x="92" y="248" width="18" height="18" rx="5"/>
    <rect x="170" y="156" width="16" height="16" rx="5"/><rect x="196" y="156" width="16" height="16" rx="5"/>
    <rect x="170" y="192" width="16" height="16" rx="5"/><rect x="196" y="192" width="16" height="16" rx="5"/>
    <rect x="388" y="176" width="16" height="16" rx="5"/><rect x="416" y="176" width="16" height="16" rx="5"/>
    <rect x="388" y="212" width="16" height="16" rx="5"/><rect x="416" y="212" width="16" height="16" rx="5"/>
    <rect x="632" y="196" width="16" height="16" rx="5"/><rect x="660" y="196" width="16" height="16" rx="5"/>
    <rect x="632" y="232" width="16" height="16" rx="5"/><rect x="660" y="232" width="16" height="16" rx="5"/>
    <rect x="738" y="146" width="16" height="16" rx="5"/><rect x="762" y="146" width="16" height="16" rx="5"/>
    <rect x="830" y="236" width="16" height="16" rx="5"/><rect x="858" y="236" width="16" height="16" rx="5"/>
    <rect x="960" y="186" width="16" height="16" rx="5"/><rect x="986" y="186" width="16" height="16" rx="5"/>
    <rect x="1062" y="256" width="16" height="16" rx="5"/><rect x="1090" y="256" width="16" height="16" rx="5"/>
  </g>
</svg>
