<svg xmlns="http://www.w3.org/2000/svg" viewBox="0 0 200 250" width="200" height="250">
  <!-- 顾客·企鹅点点 -->
  <ellipse cx="100" cy="196" rx="58" ry="46" fill="#8FB8D8" stroke="#6B4A45" stroke-width="7"/>
  <ellipse cx="100" cy="204" rx="36" ry="36" fill="#FFF6E5"/>
  <ellipse cx="76" cy="242" rx="18" ry="10" fill="#F2B880" stroke="#6B4A45" stroke-width="6"/>
  <ellipse cx="124" cy="242" rx="18" ry="10" fill="#F2B880" stroke="#6B4A45" stroke-width="6"/>
  <!-- 鳍状手 -->
  <ellipse cx="42" cy="192" rx="13" ry="24" transform="rotate(-14 42 192)" fill="#8FB8D8" stroke="#6B4A45" stroke-width="6"/>
  <ellipse cx="158" cy="192" rx="13" ry="24" transform="rotate(14 158 192)" fill="#8FB8D8" stroke="#6B4A45" stroke-width="6"/>
  <circle cx="100" cy="104" r="64" fill="#8FB8D8" stroke="#6B4A45" stroke-width="7"/>
  <path d="M100 158 q-42 -4 -42 -40 q0 -30 42 -30 q42 0 42 30 q0 36 -42 40 Z" fill="#FFF6E5"/>
  <circle cx="78" cy="98" r="9" fill="#5A3E3A"/>
  <circle cx="122" cy="98" r="9" fill="#5A3E3A"/>
  <circle cx="81" cy="94" r="3.4" fill="#FFFFFF"/>
  <circle cx="125" cy="94" r="3.4" fill="#FFFFFF"/>
  <!-- 小嘴 -->
  <path d="M86 116 q14 16 28 0 q-14 -8 -28 0 Z" fill="#F2953F" stroke="#6B4A45" stroke-width="5" stroke-linejoin="round"/>
  <ellipse cx="54" cy="118" rx="11" ry="7" fill="#FF9FB6" opacity="0.85"/>
  <ellipse cx="146" cy="118" rx="11" ry="7" fill="#FF9FB6" opacity="0.85"/>
  <!-- 头顶小揪 -->
  <path d="M100 40 q-6 -22 6 -28 q10 8 2 28 Z" fill="#8FB8D8" stroke="#6B4A45" stroke-width="6" stroke-linejoin="round"/>
</svg>
